M48
; DRILL file {KiCad 5.1.6} date Sat Aug  8 21:10:28 2020
; FORMAT={-:-/ absolute / metric / decimal}
; #@! TF.CreationDate,2020-08-08T21:10:28+02:00
; #@! TF.GenerationSoftware,Kicad,Pcbnew,5.1.6
FMAT,2
METRIC
T1C0.400
T2C0.600
T3C1.470
T4C0.650
T5C1.750
T6C3.988
%
G90
G05
T1
X97.689Y-107.883
X111.561Y-119.411
X119.914Y-121.218
X120.46Y-83.328
X121.603Y-77.232
X128.804Y-139.633
X128.968Y-60.051
X139.482Y-80.209
X139.546Y-79.211
X139.959Y-78.3
X140.61Y-132.99
X140.614Y-141.859
X143.565Y-68.952
X143.891Y-65.862
X143.896Y-132.021
X144.15Y-130.624
X144.356Y-68.189
X144.658Y-139.514
X146.563Y-76.141
X146.563Y-141.28
X146.572Y-72.594
X147.579Y-75.125
X147.833Y-126.306
X147.955Y-140.97
X148.468Y-73.982
X148.59Y-135.89
X148.896Y-128.227
X148.976Y-65.854
X149.374Y-137.396
X150.052Y-121.368
X150.306Y-75.14
X150.368Y-125.349
X150.754Y-134.815
X150.779Y-78.315
X151.516Y-132.91
X151.643Y-75.252
X151.703Y-79.204
X151.703Y-121.495
X152.024Y-65.854
X152.056Y-123.181
X152.476Y-80.209
X152.659Y-71.061
X152.913Y-133.418
X157.607Y-65.862
X158.939Y-79.298
X158.942Y-80.298
X159.009Y-78.3
X160.395Y-66.969
X160.593Y-63.583
X167.324Y-138.894
X167.451Y-144.863
X169.864Y-138.894
X172.404Y-143.466
X173.674Y-138.767
X173.755Y-67.042
X177.103Y-125.686
X178.753Y-75.2
X179.262Y-122.257
X181.928Y-85.106
X196.661Y-108.033
T3
X198.7Y-112.709
X203.798Y-108.15
X128.077Y-142.348
X132.078Y-147.895
X118.797Y-57.262
X125.633Y-57.047
X59.762Y-52.802
X66.598Y-52.587
X187.129Y-95.577
X192.227Y-91.018
X180.631Y-77.723
X185.729Y-73.164
X79.326Y-54.602
X86.162Y-54.387
X101.627Y-48.885
X108.462Y-48.67
X88.63Y-84.593
X95.466Y-84.378
X40.063Y-39.378
X46.854Y-38.568
X35.145Y-57.731
X41.936Y-56.921
X174.132Y-59.868
X179.231Y-55.31
X112.298Y-75.116
X119.134Y-74.901
X226.669Y-37.554
X231.767Y-32.996
X179.818Y-127.669
X182.179Y-121.25
X233.167Y-55.408
X238.265Y-50.85
X220.101Y-75.063
X225.199Y-70.504
X105.8Y-92.971
X112.636Y-92.756
X262.501Y-78.056
X267.977Y-73.959
X204.299Y-87.199
X209.397Y-82.64
X115.173Y-122.006
X121.31Y-125.025
X252.666Y-41.35
X258.142Y-37.254
X169.241Y-142.966
X170.169Y-149.742
X72.828Y-72.456
X79.664Y-72.241
X197.801Y-69.345
X202.899Y-64.786
X239.665Y-73.263
X244.764Y-68.704
X85.825Y-36.748
X92.66Y-36.533
X191.302Y-51.491
X196.401Y-46.932
X94.229Y-110.103
X101.065Y-109.888
X66.26Y-34.948
X73.096Y-34.733
X53.264Y-70.656
X60.099Y-70.441
X213.603Y-57.208
X218.701Y-52.65
X95.128Y-66.739
X101.964Y-66.524
X30.228Y-76.083
X37.019Y-75.274
X207.104Y-39.354
X212.203Y-34.796
X257.584Y-59.703
X263.06Y-55.606
T4
X147.882Y-67.946
X153.662Y-67.946
T5
X112.436Y-122.762
X119.234Y-130.312
X252.097Y-44.133
X261.911Y-41.503
X172.326Y-151.588
X174.784Y-141.73
X70.766Y-74.409
X80.313Y-77.884
X197.476Y-72.166
X207.023Y-68.691
X239.341Y-76.084
X248.888Y-72.609
X83.763Y-38.7
X93.31Y-42.175
X190.978Y-54.312
X200.525Y-50.837
X92.167Y-112.055
X101.715Y-115.53
X64.198Y-36.901
X73.746Y-40.375
X51.201Y-72.609
X60.749Y-76.084
X213.278Y-60.03
X222.825Y-56.555
X93.066Y-68.691
X102.613Y-72.166
X28.344Y-78.208
X38.158Y-80.838
X206.78Y-42.175
X216.327Y-38.7
X257.014Y-62.485
X266.828Y-59.856
X198.375Y-115.53
X207.922Y-112.055
X125.305Y-141.73
X127.763Y-151.588
X116.735Y-59.215
X126.282Y-62.69
X57.7Y-54.755
X67.247Y-58.23
X186.804Y-98.398
X196.352Y-94.923
X180.306Y-80.544
X189.853Y-77.069
X77.264Y-56.555
X86.811Y-60.03
X99.565Y-50.837
X109.112Y-54.312
X86.568Y-86.545
X96.115Y-90.02
X38.179Y-41.503
X47.993Y-44.133
X33.261Y-59.856
X43.075Y-62.485
X173.808Y-62.69
X183.355Y-59.215
X110.236Y-77.069
X119.784Y-80.544
X226.344Y-40.375
X235.891Y-36.901
X180.855Y-130.312
X187.654Y-122.762
X232.842Y-58.23
X242.39Y-54.755
X219.776Y-77.884
X229.324Y-74.409
X103.738Y-94.923
X113.285Y-98.398
X261.932Y-80.838
X271.746Y-78.208
X203.974Y-90.02
X213.522Y-86.545
T6
X96.941Y-113.793
X68.972Y-38.638
X55.975Y-74.346
X218.052Y-58.292
X97.84Y-70.429
X33.251Y-79.523
X211.553Y-40.438
X261.921Y-61.17
X203.149Y-113.793
X126.534Y-146.659
X121.508Y-60.952
X62.474Y-56.492
X191.578Y-96.661
X185.08Y-78.806
X82.038Y-58.292
X104.338Y-52.574
X91.341Y-88.283
X43.086Y-42.818
X38.168Y-61.17
X178.581Y-60.952
X115.01Y-78.806
X231.118Y-38.638
X184.255Y-126.537
X237.616Y-56.492
X224.55Y-76.146
X108.512Y-96.661
X266.839Y-79.523
X208.748Y-88.283
X115.835Y-126.537
X257.004Y-42.818
X173.555Y-146.659
X75.539Y-76.146
X202.25Y-70.429
X244.114Y-74.346
X88.536Y-40.438
X195.751Y-52.574
T2
G00X146.452Y-64.596
M15
G01X146.452Y-63.996
M16
G05
G00X146.452Y-69.026
M15
G01X146.452Y-67.926
M16
G05
G00X155.092Y-64.596
M15
G01X155.092Y-63.996
M16
G05
G00X155.092Y-69.026
M15
G01X155.092Y-67.926
M16
G05
T0
M30
