M48
; DRILL file {KiCad 5.1.6} date Wed Aug  5 18:01:32 2020
; FORMAT={-:-/ absolute / metric / decimal}
; #@! TF.CreationDate,2020-08-05T18:01:32+02:00
; #@! TF.GenerationSoftware,Kicad,Pcbnew,5.1.6
FMAT,2
METRIC
T1C0.400
T2C0.600
T3C1.470
T4C0.650
T5C1.750
T6C3.988
%
G90
G05
T1
X97.077Y-113.577
X100.887Y-102.782
X114.759Y-114.31
X123.112Y-116.117
X131.367Y-110.402
X132.002Y-112.399
X132.002Y-134.532
X132.65Y-56.25
X142.162Y-82.462
X142.797Y-79.287
X144.702Y-82.462
X144.728Y-63.514
X144.85Y-80.287
X145.634Y-81.192
X145.972Y-90.082
X146.424Y-77.961
X147.681Y-105.76
X149.147Y-88.177
X150.417Y-87.542
X150.417Y-91.352
X150.994Y-65.017
X152.195Y-78.271
X152.322Y-116.117
X152.761Y-85.199
X152.957Y-109.132
X152.957Y-94.527
X154.227Y-91.352
X155.078Y-64.847
X155.116Y-72.873
X156.006Y-99.416
X156.132Y-97.067
X157.085Y-72.429
X158.672Y-109.132
X159.117Y-90.082
X159.942Y-83.732
X160.577Y-98.336
X160.577Y-102.147
X161.212Y-78.017
X161.284Y-97.629
X161.847Y-96.432
X162.482Y-73.572
X162.482Y-90.082
X162.482Y-93.892
X162.482Y-95.162
X162.482Y-91.987
X165.022Y-92.622
X165.048Y-58.434
X166.292Y-82.462
X167.64Y-94.615
X169.467Y-130.087
X173.277Y-106.592
X173.277Y-105.322
X173.277Y-125.642
X176.452Y-106.592
X176.953Y-61.941
X177.087Y-105.322
X180.262Y-71.039
X187.882Y-114.847
X200.291Y-92.641
T3
X118.357Y-116.88
X124.494Y-119.9
X86.792Y-43.288
X93.628Y-43.073
X234.799Y-45.58
X239.897Y-41.021
X177.316Y-54.743
X182.415Y-50.184
X94.415Y-78.041
X101.251Y-77.826
X172.425Y-137.84
X173.353Y-144.616
X80.277Y-61.189
X87.112Y-60.974
X255.85Y-36.225
X261.326Y-32.128
X200.365Y-62.37
X205.463Y-57.811
X183.832Y-72.644
X188.93Y-68.085
X241.315Y-63.481
X246.413Y-58.923
X40.007Y-53.054
X46.798Y-52.244
X183.002Y-122.543
X185.363Y-116.124
X100.931Y-60.14
X107.767Y-59.925
X207.988Y-27.617
X213.087Y-23.058
X44.937Y-34.653
X51.728Y-33.843
X97.413Y-104.977
X104.249Y-104.762
X35.076Y-71.455
X41.867Y-70.645
X190.347Y-90.545
X195.446Y-85.987
X123.979Y-52.513
X130.815Y-52.298
X260.866Y-54.663
X266.342Y-50.566
X59.981Y-61.251
X66.817Y-61.036
X214.504Y-45.518
X219.602Y-40.959
X66.497Y-43.35
X73.332Y-43.135
X221.019Y-63.419
X226.118Y-58.86
X93.307Y-25.386
X100.143Y-25.171
X110.948Y-88.315
X117.784Y-88.1
X206.88Y-80.271
X211.979Y-75.712
X201.884Y-107.583
X206.982Y-103.025
X228.284Y-27.679
X233.382Y-23.12
X107.446Y-42.239
X114.282Y-42.024
X117.464Y-70.414
X124.3Y-70.199
X73.012Y-25.449
X79.848Y-25.234
X131.261Y-137.222
X135.262Y-142.769
X265.783Y-73.016
X271.259Y-68.919
X193.849Y-44.469
X198.948Y-39.91
T4
X151.076Y-61.415
X156.856Y-61.415
T5
X175.51Y-146.463
X177.968Y-136.605
X78.214Y-63.141
X87.762Y-66.616
X255.281Y-39.007
X265.095Y-36.377
X200.04Y-65.191
X209.587Y-61.716
X183.507Y-75.465
X193.054Y-71.99
X240.99Y-66.302
X250.537Y-62.827
X38.123Y-55.179
X47.937Y-57.808
X184.04Y-125.186
X190.838Y-117.636
X98.869Y-62.092
X108.416Y-65.567
X207.664Y-30.438
X217.211Y-26.963
X43.053Y-36.778
X52.867Y-39.407
X95.351Y-106.93
X104.899Y-110.405
X33.192Y-73.579
X43.006Y-76.209
X190.023Y-93.366
X199.57Y-89.891
X121.917Y-54.465
X131.465Y-57.94
X260.296Y-57.445
X270.11Y-54.816
X57.919Y-63.204
X67.466Y-66.678
X214.179Y-48.339
X223.726Y-44.864
X64.435Y-45.302
X73.982Y-48.777
X220.695Y-66.24
X230.242Y-62.765
X91.245Y-27.339
X100.793Y-30.814
X108.886Y-90.268
X118.434Y-93.742
X206.556Y-83.092
X216.103Y-79.617
X201.559Y-110.405
X211.106Y-106.93
X227.959Y-30.5
X237.506Y-27.025
X105.384Y-44.191
X114.932Y-47.666
X115.402Y-72.366
X124.949Y-75.841
X70.95Y-27.401
X80.497Y-30.876
X128.489Y-136.605
X130.947Y-146.463
X265.214Y-75.798
X275.028Y-73.168
X193.525Y-47.29
X203.072Y-43.815
X115.62Y-117.636
X122.418Y-125.186
X84.73Y-45.24
X94.277Y-48.715
X234.474Y-48.401
X244.022Y-44.926
X176.992Y-57.564
X186.539Y-54.089
X92.353Y-79.993
X101.901Y-83.468
T6
X103.642Y-63.83
X212.437Y-28.7
X47.96Y-38.093
X100.125Y-108.667
X38.099Y-74.894
X194.796Y-91.629
X126.691Y-56.203
X265.203Y-56.131
X62.693Y-64.941
X218.953Y-46.601
X69.208Y-47.04
X225.468Y-64.503
X96.019Y-29.076
X113.66Y-92.005
X211.329Y-81.355
X206.333Y-108.667
X232.733Y-28.763
X110.158Y-45.928
X120.175Y-74.104
X75.724Y-29.139
X129.718Y-141.534
X270.121Y-74.483
X198.298Y-45.552
X119.019Y-121.411
X89.503Y-46.977
X239.248Y-46.664
X181.765Y-55.827
X97.127Y-81.731
X176.739Y-141.534
X82.988Y-64.879
X260.188Y-37.692
X204.814Y-63.454
X188.281Y-73.728
X245.764Y-64.565
X43.03Y-56.493
X187.439Y-121.411
T2
G00X149.646Y-58.065
M15
G01X149.646Y-57.465
M16
G05
G00X149.646Y-62.495
M15
G01X149.646Y-61.395
M16
G05
G00X158.286Y-58.065
M15
G01X158.286Y-57.465
M16
G05
G00X158.286Y-62.495
M15
G01X158.286Y-61.395
M16
G05
T0
M30
